<svg xmlns="http://www.w3.org/2000/svg" width="2560" height="256" viewBox="0 0 2560 256">
<defs>
  <linearGradient id="oliveBag" x1="0" y1="0" x2="1" y2="1"><stop offset="0" stop-color="#70764a"/><stop offset=".48" stop-color="#424a2d"/><stop offset="1" stop-color="#22291c"/></linearGradient>
  <linearGradient id="kraft" x1="0" y1="0" x2="0" y2="1"><stop offset="0" stop-color="#c6b184"/><stop offset=".55" stop-color="#917b55"/><stop offset="1" stop-color="#64513a"/></linearGradient>
  <linearGradient id="darkPlastic" x1="0" y1="0" x2="1" y2="1"><stop offset="0" stop-color="#3b4a45"/><stop offset=".35" stop-color="#182521"/><stop offset="1" stop-color="#09110f"/></linearGradient>
  <linearGradient id="blueTank" x1="0" y1="0" x2="1" y2="1"><stop offset="0" stop-color="#2b8bb2"/><stop offset=".48" stop-color="#0f5778"/><stop offset="1" stop-color="#082f43"/></linearGradient>
  <linearGradient id="metal" x1="0" y1="0" x2="1" y2="0"><stop offset="0" stop-color="#667579"/><stop offset=".3" stop-color="#c1c9c6"/><stop offset=".6" stop-color="#59686b"/><stop offset="1" stop-color="#202a2c"/></linearGradient>
  <linearGradient id="screen" x1="0" y1="0" x2="0" y2="1"><stop offset="0" stop-color="#14342e"/><stop offset="1" stop-color="#071412"/></linearGradient>
  <filter id="shadow" x="-40%" y="-40%" width="180%" height="180%"><feGaussianBlur stdDeviation="5"/></filter>
  <filter id="glow" x="-80%" y="-80%" width="260%" height="260%"><feGaussianBlur stdDeviation="3"/></filter>
  
</defs>
<g transform="translate(0,0)"><ellipse cx="128" cy="221" rx="48" ry="8" fill="#000" opacity="0.22" filter="url(#shadow)"/><g opacity=".88"><rect x="188" y="34" width="14" height="177" rx="7" fill="#1e2928"/><path d="M193 39 V205" stroke="#73807e" stroke-width="3" opacity=".28"/></g><g transform="translate(117 96)">
      <circle cx="44" cy="43" r="34" fill="#d5d1c6" stroke="#2d3938" stroke-width="5"/>
      <circle cx="44" cy="43" r="25" fill="#eeeae0" stroke="#8a8b83" stroke-width="2"/>
      <path d="M44 43 L57 28" stroke="#222" stroke-width="4" stroke-linecap="round"/>
      <circle cx="44" cy="43" r="4" fill="#1e2423"/>
      <path d="M18 43 H23 M65 43 H70 M44 17 V22 M44 64 V69" stroke="#474d49" stroke-width="3"/>
      <rect x="76" y="32" width="20" height="20" rx="5" fill="#232f2c"/>
    </g></g>
<g transform="translate(256,0)"><ellipse cx="128" cy="221" rx="48" ry="8" fill="#000" opacity="0.22" filter="url(#shadow)"/><g opacity=".88"><rect x="188" y="34" width="14" height="177" rx="7" fill="#1e2928"/><path d="M193 39 V205" stroke="#73807e" stroke-width="3" opacity=".28"/></g><g>
      <rect x="96" y="68" width="92" height="86" rx="12" fill="#0b1312" stroke="#526763" stroke-width="3"/>
      <rect x="106" y="78" width="72" height="42" rx="6" fill="url(#screen)" stroke="#25463f" stroke-width="2"/>
      <path d="M115 92 H168" stroke="#76db92" stroke-width="4" opacity=".8"/>
      <path d="M115 104 H155" stroke="#63aeb7" stroke-width="4" opacity=".75"/>
      <circle cx="114" cy="138" r="4" fill="#70e687"/>
      <circle cx="128" cy="138" r="4" fill="#2f96d9"/>
      <rect x="189" y="94" width="12" height="24" rx="5" fill="#22312e"/>
    </g></g>
<g transform="translate(512,0)"><ellipse cx="128" cy="221" rx="48" ry="8" fill="#000" opacity="0.22" filter="url(#shadow)"/><g opacity=".88"><rect x="188" y="34" width="14" height="177" rx="7" fill="#1e2928"/><path d="M193 39 V205" stroke="#73807e" stroke-width="3" opacity=".28"/></g><g>
      <rect x="96" y="68" width="92" height="86" rx="12" fill="#0b1312" stroke="#526763" stroke-width="3"/>
      <rect x="106" y="78" width="72" height="42" rx="6" fill="url(#screen)" stroke="#25463f" stroke-width="2"/>
      <path d="M115 92 H168" stroke="#76db92" stroke-width="4" opacity=".8"/>
      <path d="M115 104 H155" stroke="#63aeb7" stroke-width="4" opacity=".75"/>
      <circle cx="114" cy="138" r="4" fill="#70e687"/>
      <circle cx="128" cy="138" r="4" fill="#2f96d9"/>
      <rect x="189" y="94" width="12" height="24" rx="5" fill="#22312e"/>
    </g><g transform="translate(120 164)">
        <rect x="0" y="0" width="64" height="32" rx="7" fill="#111b19" stroke="#465b55" stroke-width="2"/>
        <circle cx="15" cy="16" r="6" fill="#2c3f39"/><circle cx="34" cy="16" r="6" fill="#2c3f39"/>
        <circle cx="53" cy="16" r="4" fill="#6fe68a"/>
      </g></g>
<g transform="translate(768,0)"><ellipse cx="128" cy="221" rx="48" ry="8" fill="#000" opacity="0.22" filter="url(#shadow)"/><g opacity=".88"><rect x="188" y="34" width="14" height="177" rx="7" fill="#1e2928"/><path d="M193 39 V205" stroke="#73807e" stroke-width="3" opacity=".28"/></g><g>
      <rect x="96" y="68" width="92" height="86" rx="12" fill="#0b1312" stroke="#526763" stroke-width="3"/>
      <rect x="106" y="78" width="72" height="42" rx="6" fill="url(#screen)" stroke="#25463f" stroke-width="2"/>
      <path d="M115 92 H168" stroke="#76db92" stroke-width="4" opacity=".8"/>
      <path d="M115 104 H155" stroke="#63aeb7" stroke-width="4" opacity=".75"/>
      <circle cx="114" cy="138" r="4" fill="#70e687"/>
      <circle cx="128" cy="138" r="4" fill="#2f96d9"/>
      <rect x="189" y="94" width="12" height="24" rx="5" fill="#22312e"/>
    </g><g transform="translate(120 164)">
        <rect x="0" y="0" width="64" height="32" rx="7" fill="#111b19" stroke="#465b55" stroke-width="2"/>
        <circle cx="15" cy="16" r="6" fill="#2c3f39"/><circle cx="34" cy="16" r="6" fill="#2c3f39"/>
        <circle cx="53" cy="16" r="4" fill="#6fe68a"/>
      </g></g>
<g transform="translate(1024,0)"><ellipse cx="128" cy="221" rx="48" ry="8" fill="#000" opacity="0.22" filter="url(#shadow)"/><g opacity=".88"><rect x="188" y="34" width="14" height="177" rx="7" fill="#1e2928"/><path d="M193 39 V205" stroke="#73807e" stroke-width="3" opacity=".28"/></g><g>
      <rect x="96" y="68" width="92" height="94" rx="12" fill="#0b1312" stroke="#526763" stroke-width="3"/>
      <rect x="106" y="78" width="72" height="42" rx="6" fill="url(#screen)" stroke="#25463f" stroke-width="2"/>
      <path d="M115 92 H168" stroke="#76db92" stroke-width="4" opacity=".8"/>
      <path d="M115 104 H155" stroke="#63aeb7" stroke-width="4" opacity=".75"/>
      <circle cx="114" cy="146" r="4" fill="#70e687"/>
      <circle cx="128" cy="146" r="4" fill="#2f96d9"/>
      <rect x="189" y="94" width="12" height="24" rx="5" fill="#22312e"/>
    </g><g transform="translate(120 164)">
        <rect x="0" y="0" width="64" height="32" rx="7" fill="#111b19" stroke="#465b55" stroke-width="2"/>
        <circle cx="15" cy="16" r="6" fill="#2c3f39"/><circle cx="34" cy="16" r="6" fill="#2c3f39"/>
        <circle cx="53" cy="16" r="4" fill="#6fe68a"/>
      </g><path d="M117 194 C102 205 98 213 92 223" fill="none" stroke="#536b64" stroke-width="4" stroke-linecap="round"/>
      <circle cx="91" cy="225" r="7" fill="#15201e" stroke="#536b64" stroke-width="2"/></g>
<g transform="translate(1280,0)"><ellipse cx="128" cy="221" rx="48" ry="8" fill="#000" opacity="0.22" filter="url(#shadow)"/><g opacity=".88"><rect x="188" y="34" width="14" height="177" rx="7" fill="#1e2928"/><path d="M193 39 V205" stroke="#73807e" stroke-width="3" opacity=".28"/></g><g>
      <rect x="96" y="68" width="92" height="94" rx="12" fill="#0b1312" stroke="#526763" stroke-width="3"/>
      <rect x="106" y="78" width="72" height="42" rx="6" fill="url(#screen)" stroke="#25463f" stroke-width="2"/>
      <path d="M115 92 H168" stroke="#76db92" stroke-width="4" opacity=".8"/>
      <path d="M115 104 H155" stroke="#63aeb7" stroke-width="4" opacity=".75"/>
      <circle cx="114" cy="146" r="4" fill="#70e687"/>
      <circle cx="128" cy="146" r="4" fill="#2f96d9"/>
      <rect x="189" y="94" width="12" height="24" rx="5" fill="#22312e"/>
    </g><g transform="translate(120 164)">
        <rect x="0" y="0" width="64" height="32" rx="7" fill="#111b19" stroke="#465b55" stroke-width="2"/>
        <circle cx="15" cy="16" r="6" fill="#2c3f39"/><circle cx="34" cy="16" r="6" fill="#2c3f39"/>
        <circle cx="53" cy="16" r="4" fill="#6fe68a"/>
      </g><path d="M117 194 C102 205 98 213 92 223" fill="none" stroke="#536b64" stroke-width="4" stroke-linecap="round"/>
      <circle cx="91" cy="225" r="7" fill="#15201e" stroke="#536b64" stroke-width="2"/></g>
<g transform="translate(1536,0)"><ellipse cx="128" cy="221" rx="48" ry="8" fill="#000" opacity="0.22" filter="url(#shadow)"/><g opacity=".88"><rect x="188" y="34" width="14" height="177" rx="7" fill="#1e2928"/><path d="M193 39 V205" stroke="#73807e" stroke-width="3" opacity=".28"/></g><g>
      <rect x="90" y="68" width="100" height="94" rx="12" fill="#0b1312" stroke="#526763" stroke-width="3"/>
      <rect x="100" y="78" width="80" height="42" rx="6" fill="url(#screen)" stroke="#25463f" stroke-width="2"/>
      <path d="M109 92 H170" stroke="#76db92" stroke-width="4" opacity=".8"/>
      <path d="M109 104 H157" stroke="#63aeb7" stroke-width="4" opacity=".75"/>
      <circle cx="108" cy="146" r="4" fill="#70e687"/>
      <circle cx="122" cy="146" r="4" fill="#2f96d9"/>
      <rect x="191" y="94" width="12" height="24" rx="5" fill="#22312e"/>
    </g><g transform="translate(120 164)">
        <rect x="0" y="0" width="64" height="32" rx="7" fill="#111b19" stroke="#465b55" stroke-width="2"/>
        <circle cx="15" cy="16" r="6" fill="#2c3f39"/><circle cx="34" cy="16" r="6" fill="#2c3f39"/>
        <circle cx="53" cy="16" r="4" fill="#6fe68a"/>
      </g><path d="M117 194 C102 205 98 213 92 223" fill="none" stroke="#536b64" stroke-width="4" stroke-linecap="round"/>
      <circle cx="91" cy="225" r="7" fill="#15201e" stroke="#536b64" stroke-width="2"/><g transform="translate(53 98)">
        <rect x="0" y="0" width="34" height="48" rx="7" fill="#101918" stroke="#475d56" stroke-width="2"/>
        <rect x="7" y="8" width="20" height="12" rx="3" fill="#12352e"/>
        <circle cx="11" cy="33" r="3" fill="#6ae786"/><circle cx="22" cy="33" r="3" fill="#3099e8"/>
      </g></g>
<g transform="translate(1792,0)"><ellipse cx="128" cy="221" rx="48" ry="8" fill="#000" opacity="0.22" filter="url(#shadow)"/><g opacity=".88"><rect x="188" y="34" width="14" height="177" rx="7" fill="#1e2928"/><path d="M193 39 V205" stroke="#73807e" stroke-width="3" opacity=".28"/></g><g>
      <rect x="90" y="61" width="100" height="94" rx="12" fill="#0b1312" stroke="#526763" stroke-width="3"/>
      <rect x="100" y="71" width="80" height="42" rx="6" fill="url(#screen)" stroke="#25463f" stroke-width="2"/>
      <path d="M109 85 H170" stroke="#76db92" stroke-width="4" opacity=".8"/>
      <path d="M109 97 H157" stroke="#63aeb7" stroke-width="4" opacity=".75"/>
      <circle cx="108" cy="139" r="4" fill="#70e687"/>
      <circle cx="122" cy="139" r="4" fill="#2f96d9"/>
      <rect x="191" y="87" width="12" height="24" rx="5" fill="#22312e"/>
    </g><g transform="translate(120 164)">
        <rect x="0" y="0" width="64" height="32" rx="7" fill="#111b19" stroke="#465b55" stroke-width="2"/>
        <circle cx="15" cy="16" r="6" fill="#2c3f39"/><circle cx="34" cy="16" r="6" fill="#2c3f39"/>
        <circle cx="53" cy="16" r="4" fill="#6fe68a"/>
      </g><path d="M117 194 C102 205 98 213 92 223" fill="none" stroke="#536b64" stroke-width="4" stroke-linecap="round"/>
      <circle cx="91" cy="225" r="7" fill="#15201e" stroke="#536b64" stroke-width="2"/><g transform="translate(53 98)">
        <rect x="0" y="0" width="34" height="48" rx="7" fill="#101918" stroke="#475d56" stroke-width="2"/>
        <rect x="7" y="8" width="20" height="12" rx="3" fill="#12352e"/>
        <circle cx="11" cy="33" r="3" fill="#6ae786"/><circle cx="22" cy="33" r="3" fill="#3099e8"/>
      </g></g>
<g transform="translate(2048,0)"><ellipse cx="128" cy="221" rx="48" ry="8" fill="#000" opacity="0.22" filter="url(#shadow)"/><g opacity=".88"><rect x="188" y="34" width="14" height="177" rx="7" fill="#1e2928"/><path d="M193 39 V205" stroke="#73807e" stroke-width="3" opacity=".28"/></g><g>
      <rect x="90" y="61" width="100" height="94" rx="12" fill="#0b1312" stroke="#526763" stroke-width="3"/>
      <rect x="100" y="71" width="80" height="42" rx="6" fill="url(#screen)" stroke="#25463f" stroke-width="2"/>
      <path d="M109 85 H170" stroke="#76db92" stroke-width="4" opacity=".8"/>
      <path d="M109 97 H157" stroke="#63aeb7" stroke-width="4" opacity=".75"/>
      <circle cx="108" cy="139" r="4" fill="#70e687"/>
      <circle cx="122" cy="139" r="4" fill="#2f96d9"/>
      <rect x="191" y="87" width="12" height="24" rx="5" fill="#22312e"/>
    </g><g transform="translate(120 164)">
        <rect x="0" y="0" width="64" height="32" rx="7" fill="#111b19" stroke="#465b55" stroke-width="2"/>
        <circle cx="15" cy="16" r="6" fill="#2c3f39"/><circle cx="34" cy="16" r="6" fill="#2c3f39"/>
        <circle cx="53" cy="16" r="4" fill="#6fe68a"/>
      </g><path d="M117 194 C102 205 98 213 92 223" fill="none" stroke="#536b64" stroke-width="4" stroke-linecap="round"/>
      <circle cx="91" cy="225" r="7" fill="#15201e" stroke="#536b64" stroke-width="2"/><g transform="translate(53 98)">
        <rect x="0" y="0" width="34" height="48" rx="7" fill="#101918" stroke="#475d56" stroke-width="2"/>
        <rect x="7" y="8" width="20" height="12" rx="3" fill="#12352e"/>
        <circle cx="11" cy="33" r="3" fill="#6ae786"/><circle cx="22" cy="33" r="3" fill="#3099e8"/>
      </g><path d="M188 78 C214 84 220 102 217 128" fill="none" stroke="#324943" stroke-width="3"/>
      <circle cx="217" cy="136" r="9" fill="#101918" stroke="#50685f" stroke-width="2"/>
      <circle cx="217" cy="136" r="3" fill="#79e48f"/></g>
<g transform="translate(2304,0)"><ellipse cx="128" cy="221" rx="48" ry="8" fill="#000" opacity="0.22" filter="url(#shadow)"/><g opacity=".88"><rect x="188" y="34" width="14" height="177" rx="7" fill="#1e2928"/><path d="M193 39 V205" stroke="#73807e" stroke-width="3" opacity=".28"/></g><g>
      <rect x="90" y="61" width="100" height="94" rx="12" fill="#0b1312" stroke="#526763" stroke-width="3"/>
      <rect x="100" y="71" width="80" height="42" rx="6" fill="url(#screen)" stroke="#25463f" stroke-width="2"/>
      <path d="M109 85 H170" stroke="#76db92" stroke-width="4" opacity=".8"/>
      <path d="M109 97 H157" stroke="#63aeb7" stroke-width="4" opacity=".75"/>
      <circle cx="108" cy="139" r="4" fill="#70e687"/>
      <circle cx="122" cy="139" r="4" fill="#2f96d9"/>
      <rect x="191" y="87" width="12" height="24" rx="5" fill="#22312e"/>
    </g><g transform="translate(120 164)">
        <rect x="0" y="0" width="64" height="32" rx="7" fill="#111b19" stroke="#465b55" stroke-width="2"/>
        <circle cx="15" cy="16" r="6" fill="#2c3f39"/><circle cx="34" cy="16" r="6" fill="#2c3f39"/>
        <circle cx="53" cy="16" r="4" fill="#6fe68a"/>
      </g><path d="M117 194 C102 205 98 213 92 223" fill="none" stroke="#536b64" stroke-width="4" stroke-linecap="round"/>
      <circle cx="91" cy="225" r="7" fill="#15201e" stroke="#536b64" stroke-width="2"/><g transform="translate(53 98)">
        <rect x="0" y="0" width="34" height="48" rx="7" fill="#101918" stroke="#475d56" stroke-width="2"/>
        <rect x="7" y="8" width="20" height="12" rx="3" fill="#12352e"/>
        <circle cx="11" cy="33" r="3" fill="#6ae786"/><circle cx="22" cy="33" r="3" fill="#3099e8"/>
      </g><path d="M188 78 C214 84 220 102 217 128" fill="none" stroke="#324943" stroke-width="3"/>
      <circle cx="217" cy="136" r="9" fill="#101918" stroke="#50685f" stroke-width="2"/>
      <circle cx="217" cy="136" r="3" fill="#79e48f"/></g>
</svg>