<svg xmlns="http://www.w3.org/2000/svg" width="2560" height="256" viewBox="0 0 2560 256"><defs>
<linearGradient id="blk" x1="0" y1="0" x2="1" y2="1"><stop stop-color="#44514f"/><stop offset=".28" stop-color="#182321"/><stop offset=".72" stop-color="#0b1211"/><stop offset="1" stop-color="#263432"/></linearGradient>
<linearGradient id="blk2" x1="0" y1="0" x2="0" y2="1"><stop stop-color="#596662"/><stop offset=".12" stop-color="#25312f"/><stop offset=".7" stop-color="#0b1110"/><stop offset="1" stop-color="#1d2926"/></linearGradient>
<linearGradient id="green" x1="0" y1="0" x2="1" y2="1"><stop stop-color="#3a8a50"/><stop offset=".3" stop-color="#17482d"/><stop offset=".75" stop-color="#0a2419"/><stop offset="1" stop-color="#4b7e4c"/></linearGradient>
<linearGradient id="blue" x1="0" y1="0" x2="1" y2="1"><stop stop-color="#349ce0"/><stop offset=".32" stop-color="#155b91"/><stop offset=".72" stop-color="#082d50"/><stop offset="1" stop-color="#2974ae"/></linearGradient>
<linearGradient id="kraft" x1="0" y1="0" x2="1" y2="1"><stop stop-color="#d8c49b"/><stop offset=".48" stop-color="#9c8057"/><stop offset="1" stop-color="#5f4a34"/></linearGradient>
<linearGradient id="olive" x1="0" y1="0" x2="1" y2="1"><stop stop-color="#697953"/><stop offset=".42" stop-color="#35452d"/><stop offset="1" stop-color="#19231a"/></linearGradient>
<linearGradient id="metal" x1="0" y1="0" x2="1" y2="0"><stop stop-color="#263234"/><stop offset=".23" stop-color="#aab5b4"/><stop offset=".43" stop-color="#4c5b5d"/><stop offset=".72" stop-color="#d0d6d2"/><stop offset="1" stop-color="#293436"/></linearGradient>
<linearGradient id="glassG" x1="0" y1="0" x2="1" y2="1"><stop stop-color="#6cff82" stop-opacity=".78"/><stop offset=".4" stop-color="#167542" stop-opacity=".88"/><stop offset="1" stop-color="#062c20" stop-opacity=".96"/></linearGradient>
<linearGradient id="glassB" x1="0" y1="0" x2="1" y2="1"><stop stop-color="#5fc8ff" stop-opacity=".82"/><stop offset=".45" stop-color="#176fac" stop-opacity=".92"/><stop offset="1" stop-color="#052b51" stop-opacity=".97"/></linearGradient>
<linearGradient id="amber" x1="0" y1="0" x2="1" y2="1"><stop stop-color="#ffc65a"/><stop offset=".45" stop-color="#a76a19"/><stop offset="1" stop-color="#402407"/></linearGradient>
<linearGradient id="screen" x1="0" y1="0" x2="0" y2="1"><stop stop-color="#17332f"/><stop offset=".5" stop-color="#071716"/><stop offset="1" stop-color="#020807"/></linearGradient>
<radialGradient id="soil"><stop stop-color="#8c6b45"/><stop offset=".4" stop-color="#55402c"/><stop offset="1" stop-color="#211811"/></radialGradient>
<filter id="shadow" x="-50%" y="-80%" width="200%" height="260%"><feGaussianBlur stdDeviation="5"/></filter>
<filter id="glow" x="-90%" y="-90%" width="280%" height="280%"><feGaussianBlur stdDeviation="3"/></filter>
<filter id="soft" x="-30%" y="-30%" width="160%" height="160%"><feGaussianBlur stdDeviation=".6"/></filter>
<filter id="grain" x="-10%" y="-10%" width="120%" height="120%"><feTurbulence type="fractalNoise" baseFrequency=".6" numOctaves="2" seed="4" result="n"/><feColorMatrix in="n" type="saturate" values="0" result="g"/><feBlend in="SourceGraphic" in2="g" mode="soft-light"/></filter>
</defs><g transform="translate(0 0)"><ellipse cx="128" cy="222" rx="89" ry="11" fill="#000" opacity="0.34" filter="url(#shadow)"/><g transform="translate(49 83)"><path d="M24 51 Q25 18 54 13 Q86 8 98 34 L99 93 Q95 116 61 117 Q25 117 22 92Z" fill="url(#green)" stroke="#123422" stroke-width="4"/><path d="M27 18 H91" stroke="#fff" stroke-opacity="0.23" stroke-width="2" stroke-linecap="round"/><path d="M83 28 Q120 15 139 42 Q113 41 96 62" fill="none" stroke="#2d6f46" stroke-width="12" stroke-linecap="round"/><path d="M26 52 Q-4 54 -11 78" fill="none" stroke="#2c7045" stroke-width="11" stroke-linecap="round"/><circle cx="56" cy="63" r="7" fill="#8de09a" opacity=".28"/></g></g><g transform="translate(256 0)"><ellipse cx="128" cy="222" rx="89" ry="11" fill="#000" opacity="0.34" filter="url(#shadow)"/><g><path d="M70 97 H125 L134 187 Q130 205 99 206 Q66 203 63 187Z" fill="#d9e2dc" fill-opacity=".82" stroke="#64716f" stroke-width="3"/><rect x="80" y="87" width="37" height="18" rx="7" fill="#283733"/><path d="M124 123 Q162 115 171 140" fill="none" stroke="#d6dfd9" stroke-width="9" stroke-linecap="round"/><path d="M76 146 H116 M76 163 H110" stroke="#68857d" stroke-width="3" opacity=".55"/></g><rect x="39" y="145" width="13" height="58" rx="6" fill="#315c45"/><path d="M45 141 Q27 128 29 111" fill="none" stroke="#466c59" stroke-width="7"/></g><g transform="translate(512 0)"><ellipse cx="128" cy="222" rx="89" ry="11" fill="#000" opacity="0.34" filter="url(#shadow)"/><g><path d="M64 93 H119 L128 183 Q124 201 93 202 Q60 199 57 183Z" fill="#d9e2dc" fill-opacity=".82" stroke="#64716f" stroke-width="3"/><rect x="74" y="83" width="37" height="18" rx="7" fill="#283733"/><path d="M118 119 Q156 111 165 136" fill="none" stroke="#d6dfd9" stroke-width="9" stroke-linecap="round"/><path d="M70 142 H110 M70 159 H104" stroke="#68857d" stroke-width="3" opacity=".55"/></g><path d="M127 96 C162 103 163 135 145 176" fill="none" stroke="#1c2b2b" stroke-width="8"/><rect x="140" y="167" width="9" height="40" rx="4" fill="#31553f"/></g><g transform="translate(768 0)"><ellipse cx="128" cy="222" rx="89" ry="11" fill="#000" opacity="0.34" filter="url(#shadow)"/><g><ellipse cx="101" cy="137" rx="51" ry="32" fill="none" stroke="#101718" stroke-width="13"/><ellipse cx="101" cy="137" rx="38" ry="22" fill="none" stroke="#313f40" stroke-width="5"/><path d="M141 151 C166 153 171 169 180 182" fill="none" stroke="#1d292a" stroke-width="7"/><g transform="translate(61 163)"><path d="M0 0 V30 L-5 42 H5 L0 30" fill="#172022" stroke="#627173" stroke-width="2"/><rect x="-5" y="-5" width="10" height="12" rx="3" fill="#1f78bd"/></g><g transform="translate(87 163)"><path d="M0 0 V30 L-5 42 H5 L0 30" fill="#172022" stroke="#627173" stroke-width="2"/><rect x="-5" y="-5" width="10" height="12" rx="3" fill="#1f78bd"/></g><g transform="translate(113 163)"><path d="M0 0 V30 L-5 42 H5 L0 30" fill="#172022" stroke="#627173" stroke-width="2"/><rect x="-5" y="-5" width="10" height="12" rx="3" fill="#1f78bd"/></g><g transform="translate(139 163)"><path d="M0 0 V30 L-5 42 H5 L0 30" fill="#172022" stroke="#627173" stroke-width="2"/><rect x="-5" y="-5" width="10" height="12" rx="3" fill="#1f78bd"/></g></g></g><g transform="translate(1024 0)"><ellipse cx="128" cy="222" rx="89" ry="11" fill="#000" opacity="0.34" filter="url(#shadow)"/><g><ellipse cx="92" cy="128" rx="51" ry="32" fill="none" stroke="#101718" stroke-width="13"/><ellipse cx="92" cy="128" rx="38" ry="22" fill="none" stroke="#313f40" stroke-width="5"/><path d="M132 142 C157 144 162 160 171 173" fill="none" stroke="#1d292a" stroke-width="7"/><g transform="translate(52 154)"><path d="M0 0 V30 L-5 42 H5 L0 30" fill="#172022" stroke="#627173" stroke-width="2"/><rect x="-5" y="-5" width="10" height="12" rx="3" fill="#1f78bd"/></g><g transform="translate(78 154)"><path d="M0 0 V30 L-5 42 H5 L0 30" fill="#172022" stroke="#627173" stroke-width="2"/><rect x="-5" y="-5" width="10" height="12" rx="3" fill="#1f78bd"/></g><g transform="translate(104 154)"><path d="M0 0 V30 L-5 42 H5 L0 30" fill="#172022" stroke="#627173" stroke-width="2"/><rect x="-5" y="-5" width="10" height="12" rx="3" fill="#1f78bd"/></g><g transform="translate(130 154)"><path d="M0 0 V30 L-5 42 H5 L0 30" fill="#172022" stroke="#627173" stroke-width="2"/><rect x="-5" y="-5" width="10" height="12" rx="3" fill="#1f78bd"/></g><rect x="139" y="97" width="26" height="57" rx="7" fill="url(#blue)" stroke="#284657" stroke-width="2"/><path d="M152 103V146" stroke="#a8ddff" stroke-width="3" opacity=".55"/></g></g><g transform="translate(1280 0)"><ellipse cx="128" cy="222" rx="89" ry="11" fill="#000" opacity="0.34" filter="url(#shadow)"/><g><rect x="58" y="79" width="105" height="125" rx="13" fill="url(#blk2)" stroke="#566663" stroke-width="3"/><path d="M63 84 H155" stroke="#fff" stroke-opacity="0.18" stroke-width="2" stroke-linecap="round"/><rect x="73" y="70" width="75" height="19" rx="8" fill="#273431" stroke="#64736e" stroke-width="2"/><path d="M145 157 V211 H178" fill="none" stroke="#242f30" stroke-width="8"/><path d="M73 134 H103" stroke="#72938c" stroke-width="3" opacity=".35"/></g></g><g transform="translate(1536 0)"><ellipse cx="128" cy="222" rx="89" ry="11" fill="#000" opacity="0.34" filter="url(#shadow)"/><g><rect x="51" y="68" width="118" height="136" rx="13" fill="url(#blk2)" stroke="#566663" stroke-width="3"/><path d="M56 73 H161" stroke="#fff" stroke-opacity="0.18" stroke-width="2" stroke-linecap="round"/><rect x="66" y="59" width="88" height="19" rx="8" fill="#273431" stroke="#64736e" stroke-width="2"/><path d="M151 146 V211 H184" fill="none" stroke="#242f30" stroke-width="8"/><path d="M66 123 H96" stroke="#72938c" stroke-width="3" opacity=".35"/></g><rect x="139" y="93" width="16" height="82" rx="7" fill="url(#blue)" stroke="#36566b" stroke-width="2"/></g><g transform="translate(1792 0)"><ellipse cx="128" cy="222" rx="89" ry="11" fill="#000" opacity="0.34" filter="url(#shadow)"/><g><rect x="42" y="67" width="116" height="138" rx="13" fill="url(#blk2)" stroke="#566663" stroke-width="3"/><path d="M47 72 H150" stroke="#fff" stroke-opacity="0.18" stroke-width="2" stroke-linecap="round"/><rect x="57" y="58" width="86" height="19" rx="8" fill="#273431" stroke="#64736e" stroke-width="2"/><path d="M140 145 V212 H173" fill="none" stroke="#242f30" stroke-width="8"/><path d="M57 122 H87" stroke="#72938c" stroke-width="3" opacity=".35"/><g transform="translate(120 96)"><rect width="57" height="50" rx="9" fill="#081211" stroke="#5a6d67" stroke-width="2"/><rect x="7" y="7" width="43" height="23" rx="5" fill="url(#screen)"/><circle cx="14" cy="39" r="4" fill="#6eef7a"/><circle cx="29" cy="39" r="4" fill="#35a7ef"/></g></g><g><ellipse cx="187" cy="173" rx="51" ry="32" fill="none" stroke="#101718" stroke-width="13"/><ellipse cx="187" cy="173" rx="38" ry="22" fill="none" stroke="#313f40" stroke-width="5"/><path d="M227 187 C252 189 257 205 266 218" fill="none" stroke="#1d292a" stroke-width="7"/><g transform="translate(147 199)"><path d="M0 0 V30 L-5 42 H5 L0 30" fill="#172022" stroke="#627173" stroke-width="2"/><rect x="-5" y="-5" width="10" height="12" rx="3" fill="#1f78bd"/></g><g transform="translate(173 199)"><path d="M0 0 V30 L-5 42 H5 L0 30" fill="#172022" stroke="#627173" stroke-width="2"/><rect x="-5" y="-5" width="10" height="12" rx="3" fill="#1f78bd"/></g><g transform="translate(199 199)"><path d="M0 0 V30 L-5 42 H5 L0 30" fill="#172022" stroke="#627173" stroke-width="2"/><rect x="-5" y="-5" width="10" height="12" rx="3" fill="#1f78bd"/></g><g transform="translate(225 199)"><path d="M0 0 V30 L-5 42 H5 L0 30" fill="#172022" stroke="#627173" stroke-width="2"/><rect x="-5" y="-5" width="10" height="12" rx="3" fill="#1f78bd"/></g></g></g><g transform="translate(2048 0)"><ellipse cx="128" cy="222" rx="89" ry="11" fill="#000" opacity="0.34" filter="url(#shadow)"/><g><rect x="38" y="62" width="120" height="142" rx="13" fill="url(#blk2)" stroke="#566663" stroke-width="3"/><path d="M43 67 H150" stroke="#fff" stroke-opacity="0.18" stroke-width="2" stroke-linecap="round"/><rect x="53" y="53" width="90" height="19" rx="8" fill="#273431" stroke="#64736e" stroke-width="2"/><path d="M140 140 V211 H173" fill="none" stroke="#242f30" stroke-width="8"/><path d="M53 117 H83" stroke="#72938c" stroke-width="3" opacity=".35"/><g transform="translate(120 91)"><rect width="57" height="50" rx="9" fill="#081211" stroke="#5a6d67" stroke-width="2"/><rect x="7" y="7" width="43" height="23" rx="5" fill="url(#screen)"/><circle cx="14" cy="39" r="4" fill="#6eef7a"/><circle cx="29" cy="39" r="4" fill="#35a7ef"/><path d="M40 38 q7-8 13 0 M44 34 q3-4 6 0" fill="none" stroke="#69e493" stroke-width="2"/></g></g><rect x="161" y="104" width="37" height="84" rx="9" fill="url(#blue)" stroke="#315b73" stroke-width="2"/></g><g transform="translate(2304 0)"><ellipse cx="128" cy="222" rx="89" ry="11" fill="#000" opacity="0.34" filter="url(#shadow)"/><g><rect x="30" y="55" width="128" height="149" rx="13" fill="url(#blk2)" stroke="#566663" stroke-width="3"/><path d="M35 60 H150" stroke="#fff" stroke-opacity="0.18" stroke-width="2" stroke-linecap="round"/><rect x="45" y="46" width="98" height="19" rx="8" fill="#273431" stroke="#64736e" stroke-width="2"/><path d="M140 133 V211 H173" fill="none" stroke="#242f30" stroke-width="8"/><path d="M45 110 H75" stroke="#72938c" stroke-width="3" opacity=".35"/><g transform="translate(120 84)"><rect width="57" height="50" rx="9" fill="#081211" stroke="#5a6d67" stroke-width="2"/><rect x="7" y="7" width="43" height="23" rx="5" fill="url(#screen)"/><circle cx="14" cy="39" r="4" fill="#6eef7a"/><circle cx="29" cy="39" r="4" fill="#35a7ef"/><path d="M40 38 q7-8 13 0 M44 34 q3-4 6 0" fill="none" stroke="#69e493" stroke-width="2"/></g></g><rect x="165" y="93" width="39" height="99" rx="10" fill="url(#blue)" stroke="#315b73" stroke-width="2"/><circle cx="206" cy="77" r="22" fill="#e7e4d8" stroke="#475356" stroke-width="4"/><path d="M206 77 L217 67" stroke="#273133" stroke-width="3"/><circle cx="206" cy="77" r="3" fill="#202829"/><path d="M157 179 H223 V195 H157" fill="none" stroke="url(#metal)" stroke-width="8"/><rect x="191" y="173" width="27" height="25" rx="6" fill="#174d79" stroke="#4684a9" stroke-width="2"/></g></svg>