<svg xmlns="http://www.w3.org/2000/svg" width="2560" height="256" viewBox="0 0 2560 256"><defs>
<linearGradient id="blk" x1="0" y1="0" x2="1" y2="1"><stop stop-color="#44514f"/><stop offset=".28" stop-color="#182321"/><stop offset=".72" stop-color="#0b1211"/><stop offset="1" stop-color="#263432"/></linearGradient>
<linearGradient id="blk2" x1="0" y1="0" x2="0" y2="1"><stop stop-color="#596662"/><stop offset=".12" stop-color="#25312f"/><stop offset=".7" stop-color="#0b1110"/><stop offset="1" stop-color="#1d2926"/></linearGradient>
<linearGradient id="green" x1="0" y1="0" x2="1" y2="1"><stop stop-color="#3a8a50"/><stop offset=".3" stop-color="#17482d"/><stop offset=".75" stop-color="#0a2419"/><stop offset="1" stop-color="#4b7e4c"/></linearGradient>
<linearGradient id="blue" x1="0" y1="0" x2="1" y2="1"><stop stop-color="#349ce0"/><stop offset=".32" stop-color="#155b91"/><stop offset=".72" stop-color="#082d50"/><stop offset="1" stop-color="#2974ae"/></linearGradient>
<linearGradient id="kraft" x1="0" y1="0" x2="1" y2="1"><stop stop-color="#d8c49b"/><stop offset=".48" stop-color="#9c8057"/><stop offset="1" stop-color="#5f4a34"/></linearGradient>
<linearGradient id="olive" x1="0" y1="0" x2="1" y2="1"><stop stop-color="#697953"/><stop offset=".42" stop-color="#35452d"/><stop offset="1" stop-color="#19231a"/></linearGradient>
<linearGradient id="metal" x1="0" y1="0" x2="1" y2="0"><stop stop-color="#263234"/><stop offset=".23" stop-color="#aab5b4"/><stop offset=".43" stop-color="#4c5b5d"/><stop offset=".72" stop-color="#d0d6d2"/><stop offset="1" stop-color="#293436"/></linearGradient>
<linearGradient id="glassG" x1="0" y1="0" x2="1" y2="1"><stop stop-color="#6cff82" stop-opacity=".78"/><stop offset=".4" stop-color="#167542" stop-opacity=".88"/><stop offset="1" stop-color="#062c20" stop-opacity=".96"/></linearGradient>
<linearGradient id="glassB" x1="0" y1="0" x2="1" y2="1"><stop stop-color="#5fc8ff" stop-opacity=".82"/><stop offset=".45" stop-color="#176fac" stop-opacity=".92"/><stop offset="1" stop-color="#052b51" stop-opacity=".97"/></linearGradient>
<linearGradient id="amber" x1="0" y1="0" x2="1" y2="1"><stop stop-color="#ffc65a"/><stop offset=".45" stop-color="#a76a19"/><stop offset="1" stop-color="#402407"/></linearGradient>
<linearGradient id="screen" x1="0" y1="0" x2="0" y2="1"><stop stop-color="#17332f"/><stop offset=".5" stop-color="#071716"/><stop offset="1" stop-color="#020807"/></linearGradient>
<radialGradient id="soil"><stop stop-color="#8c6b45"/><stop offset=".4" stop-color="#55402c"/><stop offset="1" stop-color="#211811"/></radialGradient>
<filter id="shadow" x="-50%" y="-80%" width="200%" height="260%"><feGaussianBlur stdDeviation="5"/></filter>
<filter id="glow" x="-90%" y="-90%" width="280%" height="280%"><feGaussianBlur stdDeviation="3"/></filter>
<filter id="soft" x="-30%" y="-30%" width="160%" height="160%"><feGaussianBlur stdDeviation=".6"/></filter>
<filter id="grain" x="-10%" y="-10%" width="120%" height="120%"><feTurbulence type="fractalNoise" baseFrequency=".6" numOctaves="2" seed="4" result="n"/><feColorMatrix in="n" type="saturate" values="0" result="g"/><feBlend in="SourceGraphic" in2="g" mode="soft-light"/></filter>
</defs><g transform="translate(0 0)"><ellipse cx="128" cy="222" rx="91" ry="11" fill="#000" opacity="0.34" filter="url(#shadow)"/><path d="M63 73 Q94 64 122 74 L129 188 Q95 201 57 193Z" fill="url(#olive)" stroke="#28332a" stroke-width="3"/><path d="M93 135.7 C84 128.5,85.8 116.8,93 112.3 C100.2 116.8,102 128.5,93 135.7Z M93 133V115.9" fill="#a8d86f" stroke="#d7efaa" stroke-opacity=".25" stroke-width="1.08"/><ellipse cx="118" cy="205" rx="52" ry="10" fill="url(#soil)"/></g><g transform="translate(256 0)"><ellipse cx="128" cy="222" rx="91" ry="11" fill="#000" opacity="0.34" filter="url(#shadow)"/><g><ellipse cx="95" cy="200" rx="24" ry="7" fill="#000" opacity=".22" filter="url(#shadow)"/><rect x="77" y="101" width="37" height="93" rx="10" fill="url(#glassG)" stroke="#172621" stroke-width="3"/><rect x="83" y="87" width="25" height="18" rx="6" fill="#173126" stroke="#57685e" stroke-width="2"/><path d="M82 106 H106" stroke="#fff" stroke-opacity="0.18" stroke-width="2" stroke-linecap="round"/><rect x="82" y="129" width="27" height="28" rx="6" fill="#101918" opacity=".82"/><path d="M95 148.85 C90.5 145.25,91.4 139.4,95 137.15 C98.6 139.4,99.5 145.25,95 148.85Z M95 147.5V138.95" fill="#8aff71" stroke="#d7efaa" stroke-opacity=".25" stroke-width="0.54"/></g><g><ellipse cx="142" cy="200" rx="24" ry="7" fill="#000" opacity=".22" filter="url(#shadow)"/><rect x="124" y="112" width="37" height="82" rx="10" fill="url(#glassB)" stroke="#172621" stroke-width="3"/><rect x="130" y="98" width="25" height="18" rx="6" fill="#173126" stroke="#57685e" stroke-width="2"/><path d="M129 117 H153" stroke="#fff" stroke-opacity="0.18" stroke-width="2" stroke-linecap="round"/><rect x="129" y="140" width="27" height="28" rx="6" fill="#101918" opacity=".82"/><path d="M142 159.85 C137.5 156.25,138.4 150.4,142 148.15 C145.6 150.4,146.5 156.25,142 159.85Z M142 158.5V149.95" fill="#63c8ff" stroke="#d7efaa" stroke-opacity=".25" stroke-width="0.54"/></g></g><g transform="translate(512 0)"><ellipse cx="128" cy="222" rx="91" ry="11" fill="#000" opacity="0.34" filter="url(#shadow)"/><g><ellipse cx="81" cy="201" rx="24" ry="7" fill="#000" opacity=".22" filter="url(#shadow)"/><rect x="63" y="96" width="37" height="99" rx="10" fill="url(#glassG)" stroke="#172621" stroke-width="3"/><rect x="69" y="82" width="25" height="18" rx="6" fill="#173126" stroke="#57685e" stroke-width="2"/><path d="M68 101 H92" stroke="#fff" stroke-opacity="0.18" stroke-width="2" stroke-linecap="round"/><rect x="68" y="124" width="27" height="28" rx="6" fill="#101918" opacity=".82"/><path d="M81 143.85 C76.5 140.25,77.4 134.4,81 132.15 C84.6 134.4,85.5 140.25,81 143.85Z M81 142.5V133.95" fill="#8aff71" stroke="#d7efaa" stroke-opacity=".25" stroke-width="0.54"/></g><g><ellipse cx="128" cy="201" rx="24" ry="7" fill="#000" opacity=".22" filter="url(#shadow)"/><rect x="110" y="99" width="37" height="96" rx="10" fill="#86291f" stroke="#172621" stroke-width="3"/><rect x="116" y="85" width="25" height="18" rx="6" fill="#173126" stroke="#57685e" stroke-width="2"/><path d="M115 104 H139" stroke="#fff" stroke-opacity="0.18" stroke-width="2" stroke-linecap="round"/><rect x="115" y="127" width="27" height="28" rx="6" fill="#101918" opacity=".82"/><path d="M128 146.85 C123.5 143.25,124.4 137.4,128 135.15 C131.6 137.4,132.5 143.25,128 146.85Z M128 145.5V136.95" fill="#ff7d69" stroke="#d7efaa" stroke-opacity=".25" stroke-width="0.54"/></g></g><g transform="translate(768 0)"><ellipse cx="128" cy="222" rx="91" ry="11" fill="#000" opacity="0.34" filter="url(#shadow)"/><g><ellipse cx="65" cy="198" rx="24" ry="7" fill="#000" opacity=".22" filter="url(#shadow)"/><rect x="47" y="98" width="37" height="94" rx="10" fill="url(#glassG)" stroke="#172621" stroke-width="3"/><rect x="53" y="84" width="25" height="18" rx="6" fill="#173126" stroke="#57685e" stroke-width="2"/><path d="M52 103 H76" stroke="#fff" stroke-opacity="0.18" stroke-width="2" stroke-linecap="round"/><rect x="52" y="126" width="27" height="28" rx="6" fill="#101918" opacity=".82"/><path d="M65 145.85 C60.5 142.25,61.4 136.4,65 134.15 C68.6 136.4,69.5 142.25,65 145.85Z M65 144.5V135.95" fill="#8aff71" stroke="#d7efaa" stroke-opacity=".25" stroke-width="0.54"/></g><g><ellipse cx="111" cy="198" rx="24" ry="7" fill="#000" opacity=".22" filter="url(#shadow)"/><rect x="93" y="102" width="37" height="90" rx="10" fill="url(#glassB)" stroke="#172621" stroke-width="3"/><rect x="99" y="88" width="25" height="18" rx="6" fill="#173126" stroke="#57685e" stroke-width="2"/><path d="M98 107 H122" stroke="#fff" stroke-opacity="0.18" stroke-width="2" stroke-linecap="round"/><rect x="98" y="130" width="27" height="28" rx="6" fill="#101918" opacity=".82"/><path d="M111 149.85 C106.5 146.25,107.4 140.4,111 138.15 C114.6 140.4,115.5 146.25,111 149.85Z M111 148.5V139.95" fill="#62caff" stroke="#d7efaa" stroke-opacity=".25" stroke-width="0.54"/></g><g><ellipse cx="157" cy="198" rx="24" ry="7" fill="#000" opacity=".22" filter="url(#shadow)"/><rect x="139" y="111" width="37" height="81" rx="10" fill="url(#amber)" stroke="#172621" stroke-width="3"/><rect x="145" y="97" width="25" height="18" rx="6" fill="#173126" stroke="#57685e" stroke-width="2"/><path d="M144 116 H168" stroke="#fff" stroke-opacity="0.18" stroke-width="2" stroke-linecap="round"/><rect x="144" y="139" width="27" height="28" rx="6" fill="#101918" opacity=".82"/><path d="M157 158.85 C152.5 155.25,153.4 149.4,157 147.15 C160.6 149.4,161.5 155.25,157 158.85Z M157 157.5V148.95" fill="#ffd264" stroke="#d7efaa" stroke-opacity=".25" stroke-width="0.54"/></g></g><g transform="translate(1024 0)"><ellipse cx="128" cy="222" rx="91" ry="11" fill="#000" opacity="0.34" filter="url(#shadow)"/><g><ellipse cx="55" cy="199" rx="24" ry="7" fill="#000" opacity=".22" filter="url(#shadow)"/><rect x="37" y="96" width="37" height="97" rx="10" fill="url(#glassG)" stroke="#172621" stroke-width="3"/><rect x="43" y="82" width="25" height="18" rx="6" fill="#173126" stroke="#57685e" stroke-width="2"/><path d="M42 101 H66" stroke="#fff" stroke-opacity="0.18" stroke-width="2" stroke-linecap="round"/><rect x="42" y="124" width="27" height="28" rx="6" fill="#101918" opacity=".82"/><path d="M55 143.85 C50.5 140.25,51.4 134.4,55 132.15 C58.6 134.4,59.5 140.25,55 143.85Z M55 142.5V133.95" fill="#8aff71" stroke="#d7efaa" stroke-opacity=".25" stroke-width="0.54"/></g><g><ellipse cx="101" cy="199" rx="24" ry="7" fill="#000" opacity=".22" filter="url(#shadow)"/><rect x="83" y="99" width="37" height="94" rx="10" fill="#6f2d25" stroke="#172621" stroke-width="3"/><rect x="89" y="85" width="25" height="18" rx="6" fill="#173126" stroke="#57685e" stroke-width="2"/><path d="M88 104 H112" stroke="#fff" stroke-opacity="0.18" stroke-width="2" stroke-linecap="round"/><rect x="88" y="127" width="27" height="28" rx="6" fill="#101918" opacity=".82"/><path d="M101 146.85 C96.5 143.25,97.4 137.4,101 135.15 C104.6 137.4,105.5 143.25,101 146.85Z M101 145.5V136.95" fill="#ff806d" stroke="#d7efaa" stroke-opacity=".25" stroke-width="0.54"/></g><g><ellipse cx="147" cy="199" rx="24" ry="7" fill="#000" opacity=".22" filter="url(#shadow)"/><rect x="129" y="104" width="37" height="89" rx="10" fill="url(#amber)" stroke="#172621" stroke-width="3"/><rect x="135" y="90" width="25" height="18" rx="6" fill="#173126" stroke="#57685e" stroke-width="2"/><path d="M134 109 H158" stroke="#fff" stroke-opacity="0.18" stroke-width="2" stroke-linecap="round"/><rect x="134" y="132" width="27" height="28" rx="6" fill="#101918" opacity=".82"/><path d="M147 151.85 C142.5 148.25,143.4 142.4,147 140.15 C150.6 142.4,151.5 148.25,147 151.85Z M147 150.5V141.95" fill="#ffd36c" stroke="#d7efaa" stroke-opacity=".25" stroke-width="0.54"/></g><path d="M174 72 Q204 93 195 126 Q179 109 174 72Z" fill="#627f42" opacity=".75"/></g><g transform="translate(1280 0)"><ellipse cx="128" cy="222" rx="91" ry="11" fill="#000" opacity="0.34" filter="url(#shadow)"/><g><ellipse cx="51" cy="198" rx="24" ry="7" fill="#000" opacity=".22" filter="url(#shadow)"/><rect x="33" y="93" width="37" height="99" rx="10" fill="url(#glassG)" stroke="#172621" stroke-width="3"/><rect x="39" y="79" width="25" height="18" rx="6" fill="#173126" stroke="#57685e" stroke-width="2"/><path d="M38 98 H62" stroke="#fff" stroke-opacity="0.18" stroke-width="2" stroke-linecap="round"/><rect x="38" y="121" width="27" height="28" rx="6" fill="#101918" opacity=".82"/><path d="M51 140.85 C46.5 137.25,47.4 131.4,51 129.15 C54.6 131.4,55.5 137.25,51 140.85Z M51 139.5V130.95" fill="#8aff71" stroke="#d7efaa" stroke-opacity=".25" stroke-width="0.54"/></g><g><ellipse cx="95" cy="198" rx="24" ry="7" fill="#000" opacity=".22" filter="url(#shadow)"/><rect x="77" y="95" width="37" height="97" rx="10" fill="url(#glassB)" stroke="#172621" stroke-width="3"/><rect x="83" y="81" width="25" height="18" rx="6" fill="#173126" stroke="#57685e" stroke-width="2"/><path d="M82 100 H106" stroke="#fff" stroke-opacity="0.18" stroke-width="2" stroke-linecap="round"/><rect x="82" y="123" width="27" height="28" rx="6" fill="#101918" opacity=".82"/><path d="M95 142.85 C90.5 139.25,91.4 133.4,95 131.15 C98.6 133.4,99.5 139.25,95 142.85Z M95 141.5V132.95" fill="#62caff" stroke="#d7efaa" stroke-opacity=".25" stroke-width="0.54"/></g><g><ellipse cx="139" cy="198" rx="24" ry="7" fill="#000" opacity=".22" filter="url(#shadow)"/><rect x="121" y="99" width="37" height="93" rx="10" fill="#7d2e24" stroke="#172621" stroke-width="3"/><rect x="127" y="85" width="25" height="18" rx="6" fill="#173126" stroke="#57685e" stroke-width="2"/><path d="M126 104 H150" stroke="#fff" stroke-opacity="0.18" stroke-width="2" stroke-linecap="round"/><rect x="126" y="127" width="27" height="28" rx="6" fill="#101918" opacity=".82"/><path d="M139 146.85 C134.5 143.25,135.4 137.4,139 135.15 C142.6 137.4,143.5 143.25,139 146.85Z M139 145.5V136.95" fill="#ff806d" stroke="#d7efaa" stroke-opacity=".25" stroke-width="0.54"/></g><g><path d="M167 143 H209 L204 192 Q188 200 172 192Z" fill="#d9f0ed" fill-opacity=".42" stroke="#8ba6a1" stroke-width="2"/><path d="M175 158 H201 M176 171 H199" stroke="#82a8a0" stroke-width="2"/></g></g><g transform="translate(1536 0)"><ellipse cx="128" cy="222" rx="91" ry="11" fill="#000" opacity="0.34" filter="url(#shadow)"/><rect x="29" y="166" width="164" height="45" rx="10" fill="url(#blk)" stroke="#566561" stroke-width="3"/><g><ellipse cx="60" cy="189" rx="24" ry="7" fill="#000" opacity=".22" filter="url(#shadow)"/><rect x="42" y="86" width="37" height="97" rx="10" fill="url(#glassG)" stroke="#172621" stroke-width="3"/><rect x="48" y="72" width="25" height="18" rx="6" fill="#173126" stroke="#57685e" stroke-width="2"/><path d="M47 91 H71" stroke="#fff" stroke-opacity="0.18" stroke-width="2" stroke-linecap="round"/><rect x="47" y="114" width="27" height="28" rx="6" fill="#101918" opacity=".82"/><path d="M60 133.85 C55.5 130.25,56.4 124.4,60 122.15 C63.6 124.4,64.5 130.25,60 133.85Z M60 132.5V123.95" fill="#8aff71" stroke="#d7efaa" stroke-opacity=".25" stroke-width="0.54"/></g><g><ellipse cx="101" cy="189" rx="24" ry="7" fill="#000" opacity=".22" filter="url(#shadow)"/><rect x="83" y="90" width="37" height="93" rx="10" fill="url(#glassB)" stroke="#172621" stroke-width="3"/><rect x="89" y="76" width="25" height="18" rx="6" fill="#173126" stroke="#57685e" stroke-width="2"/><path d="M88 95 H112" stroke="#fff" stroke-opacity="0.18" stroke-width="2" stroke-linecap="round"/><rect x="88" y="118" width="27" height="28" rx="6" fill="#101918" opacity=".82"/><path d="M101 137.85 C96.5 134.25,97.4 128.4,101 126.15 C104.6 128.4,105.5 134.25,101 137.85Z M101 136.5V127.95" fill="#62caff" stroke="#d7efaa" stroke-opacity=".25" stroke-width="0.54"/></g><g><ellipse cx="142" cy="189" rx="24" ry="7" fill="#000" opacity=".22" filter="url(#shadow)"/><rect x="124" y="94" width="37" height="89" rx="10" fill="#7d2e24" stroke="#172621" stroke-width="3"/><rect x="130" y="80" width="25" height="18" rx="6" fill="#173126" stroke="#57685e" stroke-width="2"/><path d="M129 99 H153" stroke="#fff" stroke-opacity="0.18" stroke-width="2" stroke-linecap="round"/><rect x="129" y="122" width="27" height="28" rx="6" fill="#101918" opacity=".82"/><path d="M142 141.85 C137.5 138.25,138.4 132.4,142 130.15 C145.6 132.4,146.5 138.25,142 141.85Z M142 140.5V131.95" fill="#ff806d" stroke="#d7efaa" stroke-opacity=".25" stroke-width="0.54"/></g><g><ellipse cx="183" cy="189" rx="24" ry="7" fill="#000" opacity=".22" filter="url(#shadow)"/><rect x="165" y="102" width="37" height="81" rx="10" fill="url(#amber)" stroke="#172621" stroke-width="3"/><rect x="171" y="88" width="25" height="18" rx="6" fill="#173126" stroke="#57685e" stroke-width="2"/><path d="M170 107 H194" stroke="#fff" stroke-opacity="0.18" stroke-width="2" stroke-linecap="round"/><rect x="170" y="130" width="27" height="28" rx="6" fill="#101918" opacity=".82"/><path d="M183 149.85 C178.5 146.25,179.4 140.4,183 138.15 C186.6 140.4,187.5 146.25,183 149.85Z M183 148.5V139.95" fill="#ffd36c" stroke="#d7efaa" stroke-opacity=".25" stroke-width="0.54"/></g></g><g transform="translate(1792 0)"><ellipse cx="128" cy="222" rx="91" ry="11" fill="#000" opacity="0.34" filter="url(#shadow)"/><rect x="27" y="163" width="166" height="45" rx="10" fill="url(#blk)" stroke="#566561" stroke-width="3"/><g><ellipse cx="60" cy="183" rx="24" ry="7" fill="#000" opacity=".22" filter="url(#shadow)"/><rect x="42" y="84" width="37" height="93" rx="10" fill="url(#glassG)" stroke="#172621" stroke-width="3"/><rect x="48" y="70" width="25" height="18" rx="6" fill="#173126" stroke="#57685e" stroke-width="2"/><path d="M47 89 H71" stroke="#fff" stroke-opacity="0.18" stroke-width="2" stroke-linecap="round"/><rect x="47" y="112" width="27" height="28" rx="6" fill="#101918" opacity=".82"/><path d="M60 131.85 C55.5 128.25,56.4 122.4,60 120.15 C63.6 122.4,64.5 128.25,60 131.85Z M60 130.5V121.95" fill="#8aff71" stroke="#d7efaa" stroke-opacity=".25" stroke-width="0.54"/></g><g><ellipse cx="98" cy="183" rx="24" ry="7" fill="#000" opacity=".22" filter="url(#shadow)"/><rect x="80" y="88" width="37" height="89" rx="10" fill="url(#glassB)" stroke="#172621" stroke-width="3"/><rect x="86" y="74" width="25" height="18" rx="6" fill="#173126" stroke="#57685e" stroke-width="2"/><path d="M85 93 H109" stroke="#fff" stroke-opacity="0.18" stroke-width="2" stroke-linecap="round"/><rect x="85" y="116" width="27" height="28" rx="6" fill="#101918" opacity=".82"/><path d="M98 135.85 C93.5 132.25,94.4 126.4,98 124.15 C101.6 126.4,102.5 132.25,98 135.85Z M98 134.5V125.95" fill="#62caff" stroke="#d7efaa" stroke-opacity=".25" stroke-width="0.54"/></g><g><ellipse cx="136" cy="183" rx="24" ry="7" fill="#000" opacity=".22" filter="url(#shadow)"/><rect x="118" y="92" width="37" height="85" rx="10" fill="#7d2e24" stroke="#172621" stroke-width="3"/><rect x="124" y="78" width="25" height="18" rx="6" fill="#173126" stroke="#57685e" stroke-width="2"/><path d="M123 97 H147" stroke="#fff" stroke-opacity="0.18" stroke-width="2" stroke-linecap="round"/><rect x="123" y="120" width="27" height="28" rx="6" fill="#101918" opacity=".82"/><path d="M136 139.85 C131.5 136.25,132.4 130.4,136 128.15 C139.6 130.4,140.5 136.25,136 139.85Z M136 138.5V129.95" fill="#ff806d" stroke="#d7efaa" stroke-opacity=".25" stroke-width="0.54"/></g><g><ellipse cx="174" cy="183" rx="24" ry="7" fill="#000" opacity=".22" filter="url(#shadow)"/><rect x="156" y="96" width="37" height="81" rx="10" fill="url(#amber)" stroke="#172621" stroke-width="3"/><rect x="162" y="82" width="25" height="18" rx="6" fill="#173126" stroke="#57685e" stroke-width="2"/><path d="M161 101 H185" stroke="#fff" stroke-opacity="0.18" stroke-width="2" stroke-linecap="round"/><rect x="161" y="124" width="27" height="28" rx="6" fill="#101918" opacity=".82"/><path d="M174 143.85 C169.5 140.25,170.4 134.4,174 132.15 C177.6 134.4,178.5 140.25,174 143.85Z M174 142.5V133.95" fill="#ffd36c" stroke="#d7efaa" stroke-opacity=".25" stroke-width="0.54"/></g><g><rect x="185" y="103" width="53" height="65" rx="10" fill="#071110" stroke="#5b6b66" stroke-width="3"/><rect x="193" y="111" width="37" height="30" rx="5" fill="url(#screen)"/><path d="M201 123 H220" stroke="#53d5ff" stroke-width="3"/><circle cx="201" cy="154" r="4" fill="#67ed7b"/><circle cx="216" cy="154" r="4" fill="#43a8ef"/></g></g><g transform="translate(2048 0)"><ellipse cx="128" cy="222" rx="91" ry="11" fill="#000" opacity="0.34" filter="url(#shadow)"/><rect x="23" y="73" width="190" height="133" rx="15" fill="url(#blk2)" stroke="#586965" stroke-width="3"/><g><ellipse cx="58" cy="188" rx="24" ry="7" fill="#000" opacity=".22" filter="url(#shadow)"/><rect x="40" y="105" width="37" height="77" rx="10" fill="url(#glassG)" stroke="#172621" stroke-width="3"/><rect x="46" y="91" width="25" height="18" rx="6" fill="#173126" stroke="#57685e" stroke-width="2"/><path d="M45 110 H69" stroke="#fff" stroke-opacity="0.18" stroke-width="2" stroke-linecap="round"/><rect x="45" y="133" width="27" height="28" rx="6" fill="#101918" opacity=".82"/><path d="M58 152.85 C53.5 149.25,54.4 143.4,58 141.15 C61.6 143.4,62.5 149.25,58 152.85Z M58 151.5V142.95" fill="#8aff71" stroke="#d7efaa" stroke-opacity=".25" stroke-width="0.54"/></g><g><ellipse cx="96" cy="188" rx="24" ry="7" fill="#000" opacity=".22" filter="url(#shadow)"/><rect x="78" y="105" width="37" height="77" rx="10" fill="url(#glassB)" stroke="#172621" stroke-width="3"/><rect x="84" y="91" width="25" height="18" rx="6" fill="#173126" stroke="#57685e" stroke-width="2"/><path d="M83 110 H107" stroke="#fff" stroke-opacity="0.18" stroke-width="2" stroke-linecap="round"/><rect x="83" y="133" width="27" height="28" rx="6" fill="#101918" opacity=".82"/><path d="M96 152.85 C91.5 149.25,92.4 143.4,96 141.15 C99.6 143.4,100.5 149.25,96 152.85Z M96 151.5V142.95" fill="#62caff" stroke="#d7efaa" stroke-opacity=".25" stroke-width="0.54"/></g><g><ellipse cx="134" cy="188" rx="24" ry="7" fill="#000" opacity=".22" filter="url(#shadow)"/><rect x="116" y="105" width="37" height="77" rx="10" fill="#7d2e24" stroke="#172621" stroke-width="3"/><rect x="122" y="91" width="25" height="18" rx="6" fill="#173126" stroke="#57685e" stroke-width="2"/><path d="M121 110 H145" stroke="#fff" stroke-opacity="0.18" stroke-width="2" stroke-linecap="round"/><rect x="121" y="133" width="27" height="28" rx="6" fill="#101918" opacity=".82"/><path d="M134 152.85 C129.5 149.25,130.4 143.4,134 141.15 C137.6 143.4,138.5 149.25,134 152.85Z M134 151.5V142.95" fill="#ff806d" stroke="#d7efaa" stroke-opacity=".25" stroke-width="0.54"/></g><g><ellipse cx="172" cy="188" rx="24" ry="7" fill="#000" opacity=".22" filter="url(#shadow)"/><rect x="154" y="105" width="37" height="77" rx="10" fill="url(#amber)" stroke="#172621" stroke-width="3"/><rect x="160" y="91" width="25" height="18" rx="6" fill="#173126" stroke="#57685e" stroke-width="2"/><path d="M159 110 H183" stroke="#fff" stroke-opacity="0.18" stroke-width="2" stroke-linecap="round"/><rect x="159" y="133" width="27" height="28" rx="6" fill="#101918" opacity=".82"/><path d="M172 152.85 C167.5 149.25,168.4 143.4,172 141.15 C175.6 143.4,176.5 149.25,172 152.85Z M172 151.5V142.95" fill="#ffd36c" stroke="#d7efaa" stroke-opacity=".25" stroke-width="0.54"/></g><g><rect x="166" y="55" width="61" height="65" rx="10" fill="#071110" stroke="#5b6b66" stroke-width="3"/><rect x="174" y="63" width="45" height="30" rx="5" fill="url(#screen)"/><path d="M182 75 H209" stroke="#53d5ff" stroke-width="3"/><circle cx="182" cy="106" r="4" fill="#67ed7b"/><circle cx="197" cy="106" r="4" fill="#43a8ef"/></g></g><g transform="translate(2304 0)"><ellipse cx="128" cy="222" rx="91" ry="11" fill="#000" opacity="0.34" filter="url(#shadow)"/><rect x="20" y="68" width="194" height="137" rx="15" fill="url(#blk2)" stroke="#61706c" stroke-width="3"/><g><ellipse cx="54" cy="187" rx="24" ry="7" fill="#000" opacity=".22" filter="url(#shadow)"/><rect x="36" y="103" width="37" height="78" rx="10" fill="url(#glassG)" stroke="#172621" stroke-width="3"/><rect x="42" y="89" width="25" height="18" rx="6" fill="#173126" stroke="#57685e" stroke-width="2"/><path d="M41 108 H65" stroke="#fff" stroke-opacity="0.18" stroke-width="2" stroke-linecap="round"/><rect x="41" y="131" width="27" height="28" rx="6" fill="#101918" opacity=".82"/><path d="M54 150.85 C49.5 147.25,50.4 141.4,54 139.15 C57.6 141.4,58.5 147.25,54 150.85Z M54 149.5V140.95" fill="#8aff71" stroke="#d7efaa" stroke-opacity=".25" stroke-width="0.54"/></g><g><ellipse cx="92" cy="187" rx="24" ry="7" fill="#000" opacity=".22" filter="url(#shadow)"/><rect x="74" y="103" width="37" height="78" rx="10" fill="url(#glassB)" stroke="#172621" stroke-width="3"/><rect x="80" y="89" width="25" height="18" rx="6" fill="#173126" stroke="#57685e" stroke-width="2"/><path d="M79 108 H103" stroke="#fff" stroke-opacity="0.18" stroke-width="2" stroke-linecap="round"/><rect x="79" y="131" width="27" height="28" rx="6" fill="#101918" opacity=".82"/><path d="M92 150.85 C87.5 147.25,88.4 141.4,92 139.15 C95.6 141.4,96.5 147.25,92 150.85Z M92 149.5V140.95" fill="#62caff" stroke="#d7efaa" stroke-opacity=".25" stroke-width="0.54"/></g><g><ellipse cx="130" cy="187" rx="24" ry="7" fill="#000" opacity=".22" filter="url(#shadow)"/><rect x="112" y="103" width="37" height="78" rx="10" fill="#7d2e24" stroke="#172621" stroke-width="3"/><rect x="118" y="89" width="25" height="18" rx="6" fill="#173126" stroke="#57685e" stroke-width="2"/><path d="M117 108 H141" stroke="#fff" stroke-opacity="0.18" stroke-width="2" stroke-linecap="round"/><rect x="117" y="131" width="27" height="28" rx="6" fill="#101918" opacity=".82"/><path d="M130 150.85 C125.5 147.25,126.4 141.4,130 139.15 C133.6 141.4,134.5 147.25,130 150.85Z M130 149.5V140.95" fill="#ff806d" stroke="#d7efaa" stroke-opacity=".25" stroke-width="0.54"/></g><g><ellipse cx="168" cy="187" rx="24" ry="7" fill="#000" opacity=".22" filter="url(#shadow)"/><rect x="150" y="103" width="37" height="78" rx="10" fill="url(#amber)" stroke="#172621" stroke-width="3"/><rect x="156" y="89" width="25" height="18" rx="6" fill="#173126" stroke="#57685e" stroke-width="2"/><path d="M155 108 H179" stroke="#fff" stroke-opacity="0.18" stroke-width="2" stroke-linecap="round"/><rect x="155" y="131" width="27" height="28" rx="6" fill="#101918" opacity=".82"/><path d="M168 150.85 C163.5 147.25,164.4 141.4,168 139.15 C171.6 141.4,172.5 147.25,168 150.85Z M168 149.5V140.95" fill="#ffd36c" stroke="#d7efaa" stroke-opacity=".25" stroke-width="0.54"/></g><g><rect x="86" y="46" width="84" height="65" rx="10" fill="#071110" stroke="#5b6b66" stroke-width="3"/><rect x="94" y="54" width="68" height="30" rx="5" fill="url(#screen)"/><path d="M102 66 H152" stroke="#53d5ff" stroke-width="3"/><circle cx="102" cy="97" r="4" fill="#67ed7b"/><circle cx="117" cy="97" r="4" fill="#43a8ef"/></g><rect x="182" y="83" width="34" height="112" rx="10" fill="url(#blk)" stroke="#52645f" stroke-width="2"/><rect x="190" y="103" width="18" height="66" rx="6" fill="#176ca0" opacity=".75"/></g></svg>