<svg xmlns="http://www.w3.org/2000/svg" width="2560" height="256" viewBox="0 0 2560 256"><defs>
<linearGradient id="blk" x1="0" y1="0" x2="1" y2="1"><stop stop-color="#44514f"/><stop offset=".28" stop-color="#182321"/><stop offset=".72" stop-color="#0b1211"/><stop offset="1" stop-color="#263432"/></linearGradient>
<linearGradient id="blk2" x1="0" y1="0" x2="0" y2="1"><stop stop-color="#596662"/><stop offset=".12" stop-color="#25312f"/><stop offset=".7" stop-color="#0b1110"/><stop offset="1" stop-color="#1d2926"/></linearGradient>
<linearGradient id="green" x1="0" y1="0" x2="1" y2="1"><stop stop-color="#3a8a50"/><stop offset=".3" stop-color="#17482d"/><stop offset=".75" stop-color="#0a2419"/><stop offset="1" stop-color="#4b7e4c"/></linearGradient>
<linearGradient id="blue" x1="0" y1="0" x2="1" y2="1"><stop stop-color="#349ce0"/><stop offset=".32" stop-color="#155b91"/><stop offset=".72" stop-color="#082d50"/><stop offset="1" stop-color="#2974ae"/></linearGradient>
<linearGradient id="kraft" x1="0" y1="0" x2="1" y2="1"><stop stop-color="#d8c49b"/><stop offset=".48" stop-color="#9c8057"/><stop offset="1" stop-color="#5f4a34"/></linearGradient>
<linearGradient id="olive" x1="0" y1="0" x2="1" y2="1"><stop stop-color="#697953"/><stop offset=".42" stop-color="#35452d"/><stop offset="1" stop-color="#19231a"/></linearGradient>
<linearGradient id="metal" x1="0" y1="0" x2="1" y2="0"><stop stop-color="#263234"/><stop offset=".23" stop-color="#aab5b4"/><stop offset=".43" stop-color="#4c5b5d"/><stop offset=".72" stop-color="#d0d6d2"/><stop offset="1" stop-color="#293436"/></linearGradient>
<linearGradient id="glassG" x1="0" y1="0" x2="1" y2="1"><stop stop-color="#6cff82" stop-opacity=".78"/><stop offset=".4" stop-color="#167542" stop-opacity=".88"/><stop offset="1" stop-color="#062c20" stop-opacity=".96"/></linearGradient>
<linearGradient id="glassB" x1="0" y1="0" x2="1" y2="1"><stop stop-color="#5fc8ff" stop-opacity=".82"/><stop offset=".45" stop-color="#176fac" stop-opacity=".92"/><stop offset="1" stop-color="#052b51" stop-opacity=".97"/></linearGradient>
<linearGradient id="amber" x1="0" y1="0" x2="1" y2="1"><stop stop-color="#ffc65a"/><stop offset=".45" stop-color="#a76a19"/><stop offset="1" stop-color="#402407"/></linearGradient>
<linearGradient id="screen" x1="0" y1="0" x2="0" y2="1"><stop stop-color="#17332f"/><stop offset=".5" stop-color="#071716"/><stop offset="1" stop-color="#020807"/></linearGradient>
<radialGradient id="soil"><stop stop-color="#8c6b45"/><stop offset=".4" stop-color="#55402c"/><stop offset="1" stop-color="#211811"/></radialGradient>
<filter id="shadow" x="-50%" y="-80%" width="200%" height="260%"><feGaussianBlur stdDeviation="5"/></filter>
<filter id="glow" x="-90%" y="-90%" width="280%" height="280%"><feGaussianBlur stdDeviation="3"/></filter>
<filter id="soft" x="-30%" y="-30%" width="160%" height="160%"><feGaussianBlur stdDeviation=".6"/></filter>
<filter id="grain" x="-10%" y="-10%" width="120%" height="120%"><feTurbulence type="fractalNoise" baseFrequency=".6" numOctaves="2" seed="4" result="n"/><feColorMatrix in="n" type="saturate" values="0" result="g"/><feBlend in="SourceGraphic" in2="g" mode="soft-light"/></filter>
</defs><g transform="translate(0 0)"><ellipse cx="128" cy="222" rx="88" ry="11" fill="#000" opacity="0.34" filter="url(#shadow)"/><g transform="translate(30 64)"><path d="M8 8 Q41 -2 75 8 L82 123 Q41 137 0 124Z" fill="url(#kraft)" stroke="#263126" stroke-width="3" filter="url(#grain)"/><path d="M5 5 H74" stroke="#fff" stroke-opacity="0.22" stroke-width="2" stroke-linecap="round"/><path d="M14 43 H68 V91 H14Z" fill="#15231b" opacity=".82"/><rect x="18" y="48" width="46" height="34" rx="6" fill="#203a2a" opacity=".8"/><path d="M41 74.36 C33.8 68.6,35.24 59.24,41 55.64 C46.76 59.24,48.2 68.6,41 74.36Z M41 72.2V58.52" fill="#a8d86f" stroke="#d7efaa" stroke-opacity=".25" stroke-width="0.864"/><path d="M14 108 H67" stroke="#d7c79c" stroke-opacity=".35" stroke-width="3"/></g><ellipse cx="90" cy="205" rx="55" ry="10" fill="url(#soil)"/><g fill="#d4c19a" opacity=".45"><circle cx="59.75" cy="203" r="1.2"/><circle cx="71.85" cy="200" r="1.6"/><circle cx="83.95" cy="203" r="2"/><circle cx="96.05" cy="200" r="1.2"/><circle cx="108.15" cy="203" r="1.6"/><circle cx="120.25" cy="200" r="2"/></g></g><g transform="translate(256 0)"><ellipse cx="128" cy="222" rx="88" ry="11" fill="#000" opacity="0.34" filter="url(#shadow)"/><g transform="translate(30 64)"><path d="M8 8 Q41 -2 75 8 L82 123 Q41 137 0 124Z" fill="url(#kraft)" stroke="#263126" stroke-width="3" filter="url(#grain)"/><path d="M5 5 H74" stroke="#fff" stroke-opacity="0.22" stroke-width="2" stroke-linecap="round"/><path d="M14 43 H68 V91 H14Z" fill="#15231b" opacity=".82"/><rect x="18" y="48" width="46" height="34" rx="6" fill="#203a2a" opacity=".8"/><path d="M41 74.36 C33.8 68.6,35.24 59.24,41 55.64 C46.76 59.24,48.2 68.6,41 74.36Z M41 72.2V58.52" fill="#a8d86f" stroke="#d7efaa" stroke-opacity=".25" stroke-width="0.864"/><path d="M14 108 H67" stroke="#d7c79c" stroke-opacity=".35" stroke-width="3"/></g><ellipse cx="90" cy="205" rx="55" ry="10" fill="url(#soil)"/><g fill="#d4c19a" opacity=".45"><circle cx="59.75" cy="203" r="1.2"/><circle cx="71.85" cy="200" r="1.6"/><circle cx="83.95" cy="203" r="2"/><circle cx="96.05" cy="200" r="1.2"/><circle cx="108.15" cy="203" r="1.6"/><circle cx="120.25" cy="200" r="2"/></g><g transform="translate(132 171) rotate(-18)"><rect x="0" y="0" width="9" height="48" rx="4" fill="#56634f"/><path d="M-11 -5 Q5 -15 21 -5 L15 12 Q5 19 -7 11Z" fill="url(#metal)" stroke="#2e3838" stroke-width="2"/></g></g><g transform="translate(512 0)"><ellipse cx="128" cy="222" rx="88" ry="11" fill="#000" opacity="0.34" filter="url(#shadow)"/><g transform="translate(30 64)"><path d="M8 8 Q41 -2 75 8 L82 123 Q41 137 0 124Z" fill="url(#olive)" stroke="#263126" stroke-width="3" filter="url(#grain)"/><path d="M5 5 H74" stroke="#fff" stroke-opacity="0.22" stroke-width="2" stroke-linecap="round"/><path d="M14 43 H68 V91 H14Z" fill="#15231b" opacity=".82"/><rect x="18" y="48" width="46" height="34" rx="6" fill="#203a2a" opacity=".8"/><path d="M41 74.36 C33.8 68.6,35.24 59.24,41 55.64 C46.76 59.24,48.2 68.6,41 74.36Z M41 72.2V58.52" fill="#a8d86f" stroke="#d7efaa" stroke-opacity=".25" stroke-width="0.864"/><path d="M14 108 H67" stroke="#d7c79c" stroke-opacity=".35" stroke-width="3"/></g><ellipse cx="90" cy="205" rx="55" ry="10" fill="url(#soil)"/><g fill="#d4c19a" opacity=".45"><circle cx="59.75" cy="203" r="1.2"/><circle cx="71.85" cy="200" r="1.6"/><circle cx="83.95" cy="203" r="2"/><circle cx="96.05" cy="200" r="1.2"/><circle cx="108.15" cy="203" r="1.6"/><circle cx="120.25" cy="200" r="2"/></g><g transform="translate(132 171) rotate(-18)"><rect x="0" y="0" width="9" height="48" rx="4" fill="#56634f"/><path d="M-11 -5 Q5 -15 21 -5 L15 12 Q5 19 -7 11Z" fill="url(#metal)" stroke="#2e3838" stroke-width="2"/></g><g transform="translate(126 76)"><g transform="translate(0 0)"><path d="M8 8 Q33 -2 59 8 L66 104 Q33 118 0 105Z" fill="url(#kraft)" stroke="#263126" stroke-width="3" filter="url(#grain)"/><path d="M5 5 H58" stroke="#fff" stroke-opacity="0.22" stroke-width="2" stroke-linecap="round"/><path d="M14 43 H52 V91 H14Z" fill="#15231b" opacity=".82"/><rect x="18" y="48" width="30" height="34" rx="6" fill="#203a2a" opacity=".8"/><path d="M33 74.36 C25.8 68.6,27.240000000000002 59.24,33 55.64 C38.76 59.24,40.2 68.6,33 74.36Z M33 72.2V58.52" fill="#a8d86f" stroke="#d7efaa" stroke-opacity=".25" stroke-width="0.864"/><path d="M14 89 H51" stroke="#d7c79c" stroke-opacity=".35" stroke-width="3"/></g></g></g><g transform="translate(768 0)"><ellipse cx="128" cy="222" rx="88" ry="11" fill="#000" opacity="0.34" filter="url(#shadow)"/><g transform="translate(28 58)"><path d="M8 8 Q41 -2 75 8 L82 128 Q41 142 0 129Z" fill="url(#olive)" stroke="#263126" stroke-width="3" filter="url(#grain)"/><path d="M5 5 H74" stroke="#fff" stroke-opacity="0.22" stroke-width="2" stroke-linecap="round"/><path d="M14 43 H68 V91 H14Z" fill="#15231b" opacity=".82"/><rect x="18" y="48" width="46" height="34" rx="6" fill="#203a2a" opacity=".8"/><path d="M41 74.36 C33.8 68.6,35.24 59.24,41 55.64 C46.76 59.24,48.2 68.6,41 74.36Z M41 72.2V58.52" fill="#a8d86f" stroke="#d7efaa" stroke-opacity=".25" stroke-width="0.864"/><path d="M14 113 H67" stroke="#d7c79c" stroke-opacity=".35" stroke-width="3"/></g><g><path d="M113 169 L206 166 L201 207 L117 210Z" fill="url(#blk2)" stroke="#52625f" stroke-width="2"/><path d="M121 177 H194" stroke="#8c9b94" stroke-opacity=".25" stroke-width="3"/></g><ellipse cx="160" cy="178" rx="37" ry="7" fill="url(#soil)"/><g fill="#d4c19a" opacity=".45"><circle cx="139.65" cy="176" r="1.2"/><circle cx="147.79000000000002" cy="173" r="1.6"/><circle cx="155.93" cy="176" r="2"/><circle cx="164.07" cy="173" r="1.2"/><circle cx="172.21" cy="176" r="1.6"/><circle cx="180.35000000000002" cy="173" r="2"/></g><g transform="translate(174 154) rotate(-18)"><rect x="0" y="0" width="9" height="48" rx="4" fill="#56634f"/><path d="M-11 -5 Q5 -15 21 -5 L15 12 Q5 19 -7 11Z" fill="url(#metal)" stroke="#2e3838" stroke-width="2"/></g></g><g transform="translate(1024 0)"><ellipse cx="128" cy="222" rx="88" ry="11" fill="#000" opacity="0.34" filter="url(#shadow)"/><g transform="translate(27 53)"><path d="M8 8 Q39 -2 71 8 L78 131 Q39 145 0 132Z" fill="url(#olive)" stroke="#263126" stroke-width="3" filter="url(#grain)"/><path d="M5 5 H70" stroke="#fff" stroke-opacity="0.22" stroke-width="2" stroke-linecap="round"/><path d="M14 43 H64 V91 H14Z" fill="#15231b" opacity=".82"/><rect x="18" y="48" width="42" height="34" rx="6" fill="#203a2a" opacity=".8"/><path d="M39 74.36 C31.8 68.6,33.24 59.24,39 55.64 C44.76 59.24,46.2 68.6,39 74.36Z M39 72.2V58.52" fill="#a8d86f" stroke="#d7efaa" stroke-opacity=".25" stroke-width="0.864"/><path d="M14 116 H63" stroke="#d7c79c" stroke-opacity=".35" stroke-width="3"/></g><g><rect x="116" y="115" width="96" height="91" rx="9" fill="url(#blk)" stroke="#54635f" stroke-width="3"/><rect x="112" y="107" width="104" height="17" rx="7" fill="#273531" stroke="#64736e" stroke-width="2"/><path d="M121 120 H204" stroke="#fff" stroke-opacity="0.16" stroke-width="2" stroke-linecap="round"/><path d="M164 173.5 C157.5 168.3,158.8 159.85000000000002,164 156.60000000000002 C169.2 159.85000000000002,170.5 168.3,164 173.5Z M164 171.55V159.20000000000002" fill="#728b53" stroke="#d7efaa" stroke-opacity=".25" stroke-width="0.78"/></g><g><rect x="174" y="164" width="25" height="42" rx="6" fill="#4d3d2b" stroke="#93806a" stroke-width="2"/><rect x="176" y="159" width="21" height="8" rx="4" fill="url(#metal)"/><rect x="179" y="175" width="15" height="24" rx="4" fill="#75502d" opacity=".55"/></g><ellipse cx="88" cy="207" rx="42" ry="8" fill="url(#soil)"/><g fill="#d4c19a" opacity=".45"><circle cx="64.9" cy="205" r="1.2"/><circle cx="74.14" cy="202" r="1.6"/><circle cx="83.38000000000001" cy="205" r="2"/><circle cx="92.62" cy="202" r="1.2"/><circle cx="101.86000000000001" cy="205" r="1.6"/><circle cx="111.10000000000001" cy="202" r="2"/></g></g><g transform="translate(1280 0)"><ellipse cx="128" cy="222" rx="88" ry="11" fill="#000" opacity="0.34" filter="url(#shadow)"/><g><rect x="25" y="103" width="110" height="102" rx="9" fill="url(#blk)" stroke="#54635f" stroke-width="3"/><rect x="21" y="95" width="118" height="17" rx="7" fill="#273531" stroke="#64736e" stroke-width="2"/><path d="M30 108 H127" stroke="#fff" stroke-opacity="0.16" stroke-width="2" stroke-linecap="round"/><path d="M80 167.54999999999998 C73.5 162.35,74.8 153.9,80 150.65 C85.2 153.9,86.5 162.35,80 167.54999999999998Z M80 165.6V153.25" fill="#728b53" stroke="#d7efaa" stroke-opacity=".25" stroke-width="0.78"/></g><g transform="translate(53 177) rotate(-18)"><rect x="0" y="0" width="9" height="48" rx="4" fill="#56634f"/><path d="M-11 -5 Q5 -15 21 -5 L15 12 Q5 19 -7 11Z" fill="url(#metal)" stroke="#2e3838" stroke-width="2"/></g><g><rect x="146" y="151" width="25" height="51" rx="6" fill="#4d3d2b" stroke="#93806a" stroke-width="2"/><rect x="148" y="146" width="21" height="8" rx="4" fill="url(#metal)"/><rect x="151" y="162" width="15" height="33" rx="4" fill="#c69c6c" opacity=".55"/></g><g><rect x="177" y="158" width="25" height="44" rx="6" fill="#4d3d2b" stroke="#93806a" stroke-width="2"/><rect x="179" y="153" width="21" height="8" rx="4" fill="url(#metal)"/><rect x="182" y="169" width="15" height="26" rx="4" fill="#d9d1bd" opacity=".55"/></g><ellipse cx="82" cy="216" rx="44" ry="8" fill="url(#soil)"/><g fill="#d4c19a" opacity=".45"><circle cx="57.8" cy="214" r="1.2"/><circle cx="67.47999999999999" cy="211" r="1.6"/><circle cx="77.16" cy="214" r="2"/><circle cx="86.84" cy="211" r="1.2"/><circle cx="96.52" cy="214" r="1.6"/><circle cx="106.19999999999999" cy="211" r="2"/></g></g><g transform="translate(1536 0)"><ellipse cx="128" cy="222" rx="88" ry="11" fill="#000" opacity="0.34" filter="url(#shadow)"/><g><rect x="20" y="112" width="98" height="92" rx="9" fill="url(#blk)" stroke="#54635f" stroke-width="3"/><rect x="16" y="104" width="106" height="17" rx="7" fill="#273531" stroke="#64736e" stroke-width="2"/><path d="M25 117 H110" stroke="#fff" stroke-opacity="0.16" stroke-width="2" stroke-linecap="round"/><path d="M69 171.04999999999998 C62.5 165.85,63.8 157.4,69 154.15 C74.2 157.4,75.5 165.85,69 171.04999999999998Z M69 169.1V156.75" fill="#728b53" stroke="#d7efaa" stroke-opacity=".25" stroke-width="0.78"/></g><g><rect x="40" y="58" width="110" height="61" rx="9" fill="url(#blk)" stroke="#54635f" stroke-width="3"/><rect x="36" y="50" width="118" height="17" rx="7" fill="#273531" stroke="#64736e" stroke-width="2"/><path d="M45 63 H142" stroke="#fff" stroke-opacity="0.16" stroke-width="2" stroke-linecap="round"/><path d="M95 100.00000000000001 C88.5 94.80000000000001,89.8 86.35000000000001,95 83.10000000000001 C100.2 86.35000000000001,101.5 94.80000000000001,95 100.00000000000001Z M95 98.05000000000001V85.70000000000002" fill="#728b53" stroke="#d7efaa" stroke-opacity=".25" stroke-width="0.78"/></g><g><rect x="155" y="144" width="25" height="56" rx="6" fill="#4d3d2b" stroke="#93806a" stroke-width="2"/><rect x="157" y="139" width="21" height="8" rx="4" fill="url(#metal)"/><rect x="160" y="155" width="15" height="38" rx="4" fill="#c7b493" opacity=".55"/></g><g><rect x="186" y="151" width="25" height="49" rx="6" fill="#4d3d2b" stroke="#93806a" stroke-width="2"/><rect x="188" y="146" width="21" height="8" rx="4" fill="url(#metal)"/><rect x="191" y="162" width="15" height="31" rx="4" fill="#724b2d" opacity=".55"/></g><ellipse cx="111" cy="215" rx="36" ry="6" fill="url(#soil)"/><g fill="#d4c19a" opacity=".45"><circle cx="91.2" cy="213" r="1.2"/><circle cx="99.12" cy="210" r="1.6"/><circle cx="107.04" cy="213" r="2"/><circle cx="114.96000000000001" cy="210" r="1.2"/><circle cx="122.88" cy="213" r="1.6"/><circle cx="130.8" cy="210" r="2"/></g></g><g transform="translate(1792 0)"><ellipse cx="128" cy="222" rx="88" ry="11" fill="#000" opacity="0.34" filter="url(#shadow)"/><g><rect x="20" y="63" width="150" height="128" rx="9" fill="url(#blk)" stroke="#54635f" stroke-width="3"/><rect x="16" y="55" width="158" height="17" rx="7" fill="#273531" stroke="#64736e" stroke-width="2"/><path d="M25 68 H162" stroke="#fff" stroke-opacity="0.16" stroke-width="2" stroke-linecap="round"/><path d="M95 141.85 C88.5 136.65,89.8 128.20000000000002,95 124.95 C100.2 128.20000000000002,101.5 136.65,95 141.85Z M95 139.9V127.55000000000001" fill="#728b53" stroke="#d7efaa" stroke-opacity=".25" stroke-width="0.78"/></g><g><path d="M115 164 L210 161 L205 202 L119 205Z" fill="url(#blk2)" stroke="#52625f" stroke-width="2"/><path d="M123 172 H198" stroke="#8c9b94" stroke-opacity=".25" stroke-width="3"/></g><g><rect x="168" y="102" width="25" height="53" rx="6" fill="#4d3d2b" stroke="#93806a" stroke-width="2"/><rect x="170" y="97" width="21" height="8" rx="4" fill="url(#metal)"/><rect x="173" y="113" width="15" height="35" rx="4" fill="#d5d0c7" opacity=".55"/></g><g><rect x="197" y="119" width="25" height="45" rx="6" fill="#4d3d2b" stroke="#93806a" stroke-width="2"/><rect x="199" y="114" width="21" height="8" rx="4" fill="url(#metal)"/><rect x="202" y="130" width="15" height="27" rx="4" fill="#8c6043" opacity=".55"/></g><ellipse cx="96" cy="214" rx="35" ry="6" fill="url(#soil)"/><g fill="#d4c19a" opacity=".45"><circle cx="76.75" cy="212" r="1.2"/><circle cx="84.45" cy="209" r="1.6"/><circle cx="92.15" cy="212" r="2"/><circle cx="99.85" cy="209" r="1.2"/><circle cx="107.55" cy="212" r="1.6"/><circle cx="115.25" cy="209" r="2"/></g></g><g transform="translate(2048 0)"><ellipse cx="128" cy="222" rx="88" ry="11" fill="#000" opacity="0.34" filter="url(#shadow)"/><g><rect x="18" y="58" width="158" height="137" rx="9" fill="url(#blk)" stroke="#54635f" stroke-width="3"/><rect x="14" y="50" width="166" height="17" rx="7" fill="#273531" stroke="#64736e" stroke-width="2"/><path d="M23 63 H168" stroke="#fff" stroke-opacity="0.16" stroke-width="2" stroke-linecap="round"/><path d="M97 141.8 C90.5 136.60000000000002,91.8 128.15000000000003,97 124.90000000000002 C102.2 128.15000000000003,103.5 136.60000000000002,97 141.8Z M97 139.85000000000002V127.50000000000003" fill="#728b53" stroke="#d7efaa" stroke-opacity=".25" stroke-width="0.78"/></g><g><path d="M119 166 L213 163 L208 204 L123 207Z" fill="url(#blk2)" stroke="#52625f" stroke-width="2"/><path d="M127 174 H201" stroke="#8c9b94" stroke-opacity=".25" stroke-width="3"/></g><g><rect x="175" y="97" width="25" height="61" rx="6" fill="#4d3d2b" stroke="#93806a" stroke-width="2"/><rect x="177" y="92" width="21" height="8" rx="4" fill="url(#metal)"/><rect x="180" y="108" width="15" height="43" rx="4" fill="#e0d9c8" opacity=".55"/></g><g><rect x="202" y="119" width="25" height="44" rx="6" fill="#4d3d2b" stroke="#93806a" stroke-width="2"/><rect x="204" y="114" width="21" height="8" rx="4" fill="url(#metal)"/><rect x="207" y="130" width="15" height="26" rx="4" fill="#7b5532" opacity=".55"/></g><g transform="translate(74 179) rotate(-18)"><rect x="0" y="0" width="9" height="48" rx="4" fill="#56634f"/><path d="M-11 -5 Q5 -15 21 -5 L15 12 Q5 19 -7 11Z" fill="url(#metal)" stroke="#2e3838" stroke-width="2"/></g><ellipse cx="111" cy="214" rx="38" ry="7" fill="url(#soil)"/><g fill="#d4c19a" opacity=".45"><circle cx="90.1" cy="212" r="1.2"/><circle cx="98.46" cy="209" r="1.6"/><circle cx="106.82" cy="212" r="2"/><circle cx="115.17999999999999" cy="209" r="1.2"/><circle cx="123.53999999999999" cy="212" r="1.6"/><circle cx="131.89999999999998" cy="209" r="2"/></g></g><g transform="translate(2304 0)"><ellipse cx="128" cy="222" rx="88" ry="11" fill="#000" opacity="0.34" filter="url(#shadow)"/><g><rect x="15" y="49" width="166" height="146" rx="9" fill="url(#blk)" stroke="#54635f" stroke-width="3"/><rect x="11" y="41" width="174" height="17" rx="7" fill="#273531" stroke="#64736e" stroke-width="2"/><path d="M20 54 H173" stroke="#fff" stroke-opacity="0.16" stroke-width="2" stroke-linecap="round"/><path d="M98 137.75 C91.5 132.55,92.8 124.10000000000001,98 120.85000000000001 C103.2 124.10000000000001,104.5 132.55,98 137.75Z M98 135.8V123.45000000000002" fill="#728b53" stroke="#d7efaa" stroke-opacity=".25" stroke-width="0.78"/></g><rect x="27" y="147" width="142" height="42" rx="8" fill="#0e1614" stroke="#6b766e" stroke-width="2"/><g><rect x="39" y="151" width="25" height="34" rx="6" fill="#4d3d2b" stroke="#93806a" stroke-width="2"/><rect x="41" y="146" width="21" height="8" rx="4" fill="url(#metal)"/><rect x="44" y="162" width="15" height="16" rx="4" fill="#d8c7aa" opacity=".55"/></g><g><rect x="70" y="151" width="25" height="34" rx="6" fill="#4d3d2b" stroke="#93806a" stroke-width="2"/><rect x="72" y="146" width="21" height="8" rx="4" fill="url(#metal)"/><rect x="75" y="162" width="15" height="16" rx="4" fill="#9b6c47" opacity=".55"/></g><g><rect x="101" y="151" width="25" height="34" rx="6" fill="#4d3d2b" stroke="#93806a" stroke-width="2"/><rect x="103" y="146" width="21" height="8" rx="4" fill="url(#metal)"/><rect x="106" y="162" width="15" height="16" rx="4" fill="#ddd8ca" opacity=".55"/></g><g><rect x="132" y="151" width="25" height="34" rx="6" fill="#4d3d2b" stroke="#93806a" stroke-width="2"/><rect x="134" y="146" width="21" height="8" rx="4" fill="url(#metal)"/><rect x="137" y="162" width="15" height="16" rx="4" fill="#725037" opacity=".55"/></g><g transform="translate(196 165) rotate(-18)"><rect x="0" y="0" width="9" height="48" rx="4" fill="#56634f"/><path d="M-11 -5 Q5 -15 21 -5 L15 12 Q5 19 -7 11Z" fill="url(#metal)" stroke="#2e3838" stroke-width="2"/></g><ellipse cx="203" cy="213" rx="28" ry="5" fill="url(#soil)"/><g fill="#d4c19a" opacity=".45"><circle cx="187.6" cy="211" r="1.2"/><circle cx="193.76" cy="208" r="1.6"/><circle cx="199.92" cy="211" r="2"/><circle cx="206.07999999999998" cy="208" r="1.2"/><circle cx="212.24" cy="211" r="1.6"/><circle cx="218.4" cy="208" r="2"/></g></g></svg>